<svg width="58" height="27" viewBox="0 0 58 27" fill="none" xmlns="http://www.w3.org/2000/svg">
<path d="M49.6603 26H8.14881C7.74555 26 7.38709 25.7442 7.25645 25.364L1.051 7.30803C0.882568 6.81579 1.14493 6.28101 1.6378 6.11191C1.78896 6.06075 1.94659 6.04782 2.09289 6.07367C2.43407 6.0936 2.75203 6.29933 2.89941 6.63323C3.66652 8.37112 6.39541 13.9817 9.57884 13.9817C9.61825 13.9817 9.6582 13.9807 9.69869 13.9785C11.6189 13.8934 14.622 11.6827 18.0246 1.6398C18.1547 1.25743 18.5137 1 18.9181 1C19.3229 1 19.6819 1.25743 19.812 1.6398C20.9738 5.06443 24.8676 13.9263 28.911 13.9263C28.9218 13.9263 28.9321 13.9257 28.9434 13.9257C30.8604 13.9026 33.8079 11.7564 36.9644 1.6608C37.088 1.26712 37.4524 1 37.8654 1H37.8745C38.2913 1.00431 38.6557 1.28005 38.7712 1.67911C39.7359 4.99334 43.1574 13.6742 47.3541 14.0367C49.8061 14.2381 52.5247 11.4699 55.2088 6.00205C55.4269 5.55559 55.957 5.35471 56.4175 5.5459C56.8769 5.736 57.1101 6.24978 56.9492 6.72047L50.5532 25.364C50.422 25.7447 50.0636 26 49.6603 26ZM8.82253 24.1178H48.9855L52.6818 13.3436C50.8955 15.2296 49.0816 16.0708 47.19 15.9124C42.542 15.5091 39.3526 8.82728 37.8697 4.89964C35.2504 12.1937 32.3261 15.7681 28.965 15.8074C28.9467 15.8074 28.9294 15.8085 28.911 15.8085C24.2139 15.8085 20.5878 8.62478 18.9451 4.66214C16.1422 12.0408 13.1342 15.7094 9.78236 15.8591C8.06405 15.9254 6.56762 15.0712 5.27902 13.804L8.82253 24.1178Z" fill="#A07B50" stroke="#151313" stroke-width="0.8"/>
</svg>
