<svg width="65" height="52" viewBox="0 0 65 52" fill="none" xmlns="http://www.w3.org/2000/svg">
<path d="M33.9141 21.845V30.4583C33.9141 34.1952 33.5153 37.4195 32.7178 40.1311C31.9202 42.8199 30.7695 45.0302 29.2656 46.762C27.7845 48.4709 26.0186 49.7356 23.9678 50.5559C21.917 51.3762 19.6383 51.7864 17.1318 51.7864C15.1266 51.7864 13.2581 51.5357 11.5264 51.0344C9.7946 50.5103 8.23372 49.7014 6.84375 48.6077C5.47656 47.5139 4.29167 46.1353 3.28906 44.4719C2.30924 42.7857 1.55729 40.7805 1.0332 38.4563C0.509115 36.1321 0.24707 33.4661 0.24707 30.4583V21.845C0.24707 18.108 0.645833 14.9065 1.44336 12.2405C2.26367 9.55168 3.41439 7.35278 4.89551 5.6438C6.39941 3.93481 8.17676 2.68156 10.2275 1.88403C12.2783 1.06372 14.557 0.653564 17.0635 0.653564C19.0687 0.653564 20.9258 0.915609 22.6348 1.4397C24.3665 1.941 25.9274 2.72713 27.3174 3.7981C28.7074 4.86906 29.8923 6.24764 30.8721 7.93384C31.8519 9.59725 32.6038 11.5911 33.1279 13.9153C33.652 16.2167 33.9141 18.8599 33.9141 21.845ZM24.0361 31.7571V20.512C24.0361 18.7118 23.9336 17.1396 23.7285 15.7952C23.5462 14.4508 23.2614 13.3114 22.874 12.3772C22.4867 11.4202 22.0081 10.6454 21.4385 10.053C20.8688 9.46053 20.2194 9.02759 19.4902 8.75415C18.7611 8.48071 17.9521 8.34399 17.0635 8.34399C15.9469 8.34399 14.9557 8.56047 14.0898 8.99341C13.2467 9.42635 12.529 10.1213 11.9365 11.0784C11.3441 12.0126 10.8883 13.2659 10.5693 14.8381C10.2731 16.3876 10.125 18.2789 10.125 20.512V31.7571C10.125 33.5572 10.2161 35.1409 10.3984 36.5081C10.6035 37.8752 10.8997 39.0487 11.2871 40.0286C11.6973 40.9856 12.1758 41.7717 12.7227 42.387C13.2923 42.9794 13.9417 43.4124 14.6709 43.6858C15.4229 43.9592 16.2432 44.0959 17.1318 44.0959C18.2256 44.0959 19.194 43.8795 20.0371 43.4465C20.903 42.9908 21.6322 42.2844 22.2246 41.3274C22.8398 40.3476 23.2956 39.0715 23.5918 37.4993C23.888 35.927 24.0361 34.0129 24.0361 31.7571ZM64.6074 1.23462V51.1028H54.7637V12.5823L42.9375 16.342V8.58325L63.5479 1.23462H64.6074Z" fill="#A07B50"/>
</svg>
