<svg width="75" height="53" viewBox="0 0 75 53" fill="none" xmlns="http://www.w3.org/2000/svg">
<path d="M33.9141 22.1838V30.7971C33.9141 34.5341 33.5153 37.7584 32.7178 40.47C31.9202 43.1588 30.7695 45.3691 29.2656 47.1008C27.7845 48.8098 26.0186 50.0745 23.9678 50.8948C21.917 51.7151 19.6383 52.1252 17.1318 52.1252C15.1266 52.1252 13.2581 51.8746 11.5264 51.3733C9.7946 50.8492 8.23372 50.0403 6.84375 48.9465C5.47656 47.8528 4.29167 46.4742 3.28906 44.8108C2.30924 43.1246 1.55729 41.1194 1.0332 38.7952C0.509115 36.4709 0.24707 33.8049 0.24707 30.7971V22.1838C0.24707 18.4469 0.645833 15.2454 1.44336 12.5793C2.26367 9.89054 3.41439 7.69165 4.89551 5.98267C6.39941 4.27368 8.17676 3.02043 10.2275 2.2229C12.2783 1.40259 14.557 0.992432 17.0635 0.992432C19.0687 0.992432 20.9258 1.25448 22.6348 1.77856C24.3665 2.27987 25.9274 3.066 27.3174 4.13696C28.7074 5.20793 29.8923 6.58651 30.8721 8.27271C31.8519 9.93612 32.6038 11.9299 33.1279 14.2542C33.652 16.5556 33.9141 19.1988 33.9141 22.1838ZM24.0361 32.0959V20.8508C24.0361 19.0507 23.9336 17.4784 23.7285 16.134C23.5462 14.7896 23.2614 13.6503 22.874 12.7161C22.4867 11.759 22.0081 10.9843 21.4385 10.3918C20.8688 9.7994 20.2194 9.36646 19.4902 9.09302C18.7611 8.81958 17.9521 8.68286 17.0635 8.68286C15.9469 8.68286 14.9557 8.89933 14.0898 9.33228C13.2467 9.76522 12.529 10.4602 11.9365 11.4172C11.3441 12.3515 10.8883 13.6047 10.5693 15.177C10.2731 16.7265 10.125 18.6178 10.125 20.8508V32.0959C10.125 33.8961 10.2161 35.4797 10.3984 36.8469C10.6035 38.2141 10.8997 39.3876 11.2871 40.3674C11.6973 41.3245 12.1758 42.1106 12.7227 42.7258C13.2923 43.3183 13.9417 43.7512 14.6709 44.0247C15.4229 44.2981 16.2432 44.4348 17.1318 44.4348C18.2256 44.4348 19.194 44.2183 20.0371 43.7854C20.903 43.3297 21.6322 42.6233 22.2246 41.6663C22.8398 40.6864 23.2956 39.4104 23.5918 37.8381C23.888 36.2659 24.0361 34.3518 24.0361 32.0959ZM74.6562 43.7512V51.4417H40.6133V44.8792L56.7119 27.6184C58.3298 25.8183 59.6058 24.2346 60.54 22.8674C61.4743 21.4775 62.1465 20.2356 62.5566 19.1418C62.9896 18.0253 63.2061 16.9657 63.2061 15.9631C63.2061 14.4592 62.9554 13.1718 62.4541 12.1008C61.9528 11.0071 61.2122 10.164 60.2324 9.57153C59.2754 8.97909 58.0905 8.68286 56.6777 8.68286C55.1738 8.68286 53.875 9.04744 52.7812 9.77661C51.7103 10.5058 50.89 11.5198 50.3203 12.8186C49.7734 14.1174 49.5 15.5872 49.5 17.2278H39.6221C39.6221 14.2655 40.3285 11.554 41.7412 9.09302C43.154 6.60929 45.1478 4.63826 47.7227 3.17993C50.2975 1.69881 53.3509 0.958252 56.8828 0.958252C60.3691 0.958252 63.3086 1.52791 65.7012 2.66724C68.1165 3.78377 69.9395 5.40161 71.1699 7.52075C72.4232 9.61711 73.0498 12.1236 73.0498 15.0403C73.0498 16.6809 72.7878 18.2874 72.2637 19.8596C71.7396 21.4091 70.9876 22.9586 70.0078 24.5081C69.0508 26.0347 67.8887 27.5842 66.5215 29.1565C65.1543 30.7288 63.639 32.358 61.9756 34.0442L53.3281 43.7512H74.6562Z" fill="#A07B50"/>
</svg>
