<svg width="54" height="38" viewBox="0 0 54 38" fill="none" xmlns="http://www.w3.org/2000/svg">
<path d="M24.3672 16.1016V22.2539C24.3672 24.9232 24.0824 27.2262 23.5127 29.1631C22.943 31.0837 22.1211 32.6624 21.0469 33.8994C19.9889 35.1201 18.7275 36.0234 17.2627 36.6094C15.7979 37.1953 14.1702 37.4883 12.3799 37.4883C10.9476 37.4883 9.61296 37.3092 8.37598 36.9512C7.139 36.5768 6.02409 35.999 5.03125 35.2178C4.05469 34.4365 3.20833 33.4518 2.49219 32.2637C1.79232 31.0592 1.25521 29.627 0.880859 27.9668C0.50651 26.3066 0.319336 24.4023 0.319336 22.2539V16.1016C0.319336 13.4323 0.604167 11.1455 1.17383 9.24121C1.75977 7.32064 2.58171 5.75 3.63965 4.5293C4.71387 3.30859 5.9834 2.41341 7.44824 1.84375C8.91309 1.25781 10.5407 0.964844 12.3311 0.964844C13.7633 0.964844 15.0898 1.15202 16.3105 1.52637C17.5475 1.88444 18.6624 2.44596 19.6553 3.21094C20.6481 3.97591 21.4945 4.96061 22.1943 6.16504C22.8942 7.35319 23.4313 8.77734 23.8057 10.4375C24.18 12.0814 24.3672 13.9694 24.3672 16.1016ZM17.3115 23.1816V15.1494C17.3115 13.8636 17.2383 12.7406 17.0918 11.7803C16.9616 10.82 16.7581 10.0062 16.4814 9.33887C16.2048 8.65527 15.863 8.10189 15.4561 7.67871C15.0492 7.25553 14.5853 6.94629 14.0645 6.75098C13.5436 6.55566 12.9658 6.45801 12.3311 6.45801C11.5335 6.45801 10.8255 6.61263 10.207 6.92188C9.60482 7.23112 9.09212 7.72754 8.66895 8.41113C8.24577 9.07845 7.92025 9.97363 7.69238 11.0967C7.48079 12.2035 7.375 13.5544 7.375 15.1494V23.1816C7.375 24.4674 7.4401 25.5986 7.57031 26.5752C7.7168 27.5518 7.92839 28.39 8.20508 29.0898C8.49805 29.7734 8.83984 30.335 9.23047 30.7744C9.63737 31.1976 10.1012 31.5068 10.6221 31.7021C11.1592 31.8975 11.7451 31.9951 12.3799 31.9951C13.1611 31.9951 13.8529 31.8405 14.4551 31.5312C15.0736 31.2057 15.5944 30.7012 16.0176 30.0176C16.457 29.3177 16.7826 28.4062 16.9941 27.2832C17.2057 26.1602 17.3115 24.793 17.3115 23.1816ZM53.4688 31.5068V37H29.1523V32.3125L40.6514 19.9834C41.807 18.6976 42.7184 17.5664 43.3857 16.5898C44.0531 15.597 44.5332 14.71 44.8262 13.9287C45.1354 13.1312 45.29 12.3743 45.29 11.6582C45.29 10.584 45.111 9.66439 44.7529 8.89941C44.3949 8.11816 43.8659 7.51595 43.166 7.09277C42.4824 6.6696 41.6361 6.45801 40.627 6.45801C39.5527 6.45801 38.625 6.71842 37.8438 7.23926C37.0788 7.76009 36.4928 8.48438 36.0859 9.41211C35.6953 10.3398 35.5 11.3896 35.5 12.5615H28.4443C28.4443 10.4456 28.9489 8.50879 29.958 6.75098C30.9671 4.97689 32.3913 3.56901 34.2305 2.52734C36.0697 1.4694 38.2507 0.94043 40.7734 0.94043C43.2637 0.94043 45.3633 1.34733 47.0723 2.16113C48.7975 2.95866 50.0996 4.11426 50.9785 5.62793C51.8737 7.12533 52.3213 8.91569 52.3213 10.999C52.3213 12.1709 52.1341 13.3184 51.7598 14.4414C51.3854 15.5482 50.8483 16.6549 50.1484 17.7617C49.4648 18.8522 48.6348 19.959 47.6582 21.082C46.6816 22.2051 45.5993 23.3688 44.4111 24.5732L38.2344 31.5068H53.4688Z" fill="#A07B50"/>
</svg>
