<svg width="75" height="52" viewBox="0 0 75 52" fill="none" xmlns="http://www.w3.org/2000/svg">
<path d="M33.9141 21.3088V29.9221C33.9141 33.6591 33.5153 36.8834 32.7178 39.595C31.9202 42.2838 30.7695 44.4941 29.2656 46.2258C27.7845 47.9348 26.0186 49.1995 23.9678 50.0198C21.917 50.8401 19.6383 51.2502 17.1318 51.2502C15.1266 51.2502 13.2581 50.9996 11.5264 50.4983C9.7946 49.9742 8.23372 49.1653 6.84375 48.0715C5.47656 46.9778 4.29167 45.5992 3.28906 43.9358C2.30924 42.2496 1.55729 40.2444 1.0332 37.9202C0.509115 35.5959 0.24707 32.9299 0.24707 29.9221V21.3088C0.24707 17.5719 0.645833 14.3704 1.44336 11.7043C2.26367 9.01554 3.41439 6.81665 4.89551 5.10767C6.39941 3.39868 8.17676 2.14543 10.2275 1.3479C12.2783 0.527588 14.557 0.117432 17.0635 0.117432C19.0687 0.117432 20.9258 0.379476 22.6348 0.903564C24.3665 1.40487 25.9274 2.191 27.3174 3.26196C28.7074 4.33293 29.8923 5.71151 30.8721 7.39771C31.8519 9.06112 32.6038 11.0549 33.1279 13.3792C33.652 15.6806 33.9141 18.3238 33.9141 21.3088ZM24.0361 31.2209V19.9758C24.0361 18.1757 23.9336 16.6034 23.7285 15.259C23.5462 13.9146 23.2614 12.7753 22.874 11.8411C22.4867 10.884 22.0081 10.1093 21.4385 9.51685C20.8688 8.9244 20.2194 8.49146 19.4902 8.21802C18.7611 7.94458 17.9521 7.80786 17.0635 7.80786C15.9469 7.80786 14.9557 8.02433 14.0898 8.45728C13.2467 8.89022 12.529 9.58521 11.9365 10.5422C11.3441 11.4765 10.8883 12.7297 10.5693 14.302C10.2731 15.8515 10.125 17.7428 10.125 19.9758V31.2209C10.125 33.0211 10.2161 34.6047 10.3984 35.9719C10.6035 37.3391 10.8997 38.5126 11.2871 39.4924C11.6973 40.4495 12.1758 41.2356 12.7227 41.8508C13.2923 42.4433 13.9417 42.8762 14.6709 43.1497C15.4229 43.4231 16.2432 43.5598 17.1318 43.5598C18.2256 43.5598 19.194 43.3433 20.0371 42.9104C20.903 42.4547 21.6322 41.7483 22.2246 40.7913C22.8398 39.8114 23.2956 38.5354 23.5918 36.9631C23.888 35.3909 24.0361 33.4768 24.0361 31.2209ZM50.6963 21.4114H55.96C57.6462 21.4114 59.0361 21.1265 60.1299 20.5569C61.2236 19.9644 62.0326 19.1441 62.5566 18.0959C63.1035 17.025 63.377 15.7831 63.377 14.3704C63.377 13.0943 63.1263 11.9664 62.625 10.9866C62.1465 9.98397 61.4059 9.20923 60.4033 8.66235C59.4007 8.09269 58.1361 7.80786 56.6094 7.80786C55.4017 7.80786 54.2852 8.04712 53.2598 8.52563C52.2344 9.00415 51.4141 9.67635 50.7988 10.5422C50.1836 11.4081 49.876 12.4563 49.876 13.6868H39.998C39.998 10.9524 40.7272 8.57121 42.1855 6.54321C43.6667 4.51522 45.6491 2.93156 48.1328 1.79224C50.6165 0.652913 53.3509 0.083252 56.3359 0.083252C59.7083 0.083252 62.6592 0.630127 65.1885 1.72388C67.7178 2.79484 69.6888 4.3785 71.1016 6.47485C72.5143 8.57121 73.2207 11.1689 73.2207 14.2678C73.2207 15.8401 72.8561 17.3668 72.127 18.8479C71.3978 20.3062 70.3496 21.6278 68.9824 22.8127C67.638 23.9749 65.9974 24.9091 64.0605 25.6155C62.1237 26.2991 59.9476 26.6409 57.5322 26.6409H50.6963V21.4114ZM50.6963 28.8967V23.804H57.5322C60.2438 23.804 62.625 24.1116 64.6758 24.7268C66.7266 25.342 68.4469 26.2307 69.8369 27.3928C71.2269 28.5321 72.2751 29.8879 72.9814 31.4602C73.6878 33.0097 74.041 34.7301 74.041 36.6213C74.041 38.9456 73.5967 41.0191 72.708 42.842C71.8193 44.6422 70.5661 46.1689 68.9482 47.4221C67.3532 48.6754 65.4847 49.6324 63.3428 50.2932C61.2008 50.9312 58.8652 51.2502 56.3359 51.2502C54.2396 51.2502 52.1774 50.9654 50.1494 50.3958C48.1442 49.8033 46.3213 48.926 44.6807 47.7639C43.0628 46.579 41.764 45.0979 40.7842 43.3206C39.8271 41.5204 39.3486 39.3899 39.3486 36.929H49.2266C49.2266 38.205 49.5456 39.3443 50.1836 40.3469C50.8216 41.3495 51.6989 42.1357 52.8154 42.7053C53.9548 43.275 55.2194 43.5598 56.6094 43.5598C58.1816 43.5598 59.526 43.275 60.6426 42.7053C61.7819 42.1129 62.6478 41.2926 63.2402 40.2444C63.8555 39.1734 64.1631 37.9316 64.1631 36.5188C64.1631 34.6959 63.8327 33.2375 63.1719 32.1438C62.5111 31.0273 61.5654 30.2069 60.335 29.6829C59.1045 29.1588 57.6462 28.8967 55.96 28.8967H50.6963Z" fill="#A07B50"/>
</svg>
