<svg width="54" height="37" viewBox="0 0 54 37" fill="none" xmlns="http://www.w3.org/2000/svg">
<path d="M24.9117 15.1931V21.3455C24.9117 24.0147 24.6268 26.3178 24.0572 28.2546C23.4875 30.1752 22.6656 31.754 21.5913 32.991C20.5334 34.2117 19.272 35.115 17.8072 35.7009C16.3423 36.2869 14.7147 36.5798 12.9243 36.5798C11.4921 36.5798 10.1574 36.4008 8.92044 36.0427C7.68346 35.6684 6.56855 35.0906 5.57571 34.3093C4.59915 33.5281 3.7528 32.5434 3.03665 31.3552C2.33678 30.1508 1.79967 28.7185 1.42532 27.0583C1.05097 25.3982 0.8638 23.4939 0.8638 21.3455V15.1931C0.8638 12.5238 1.14863 10.2371 1.71829 8.33276C2.30423 6.41219 3.12617 4.84155 4.18411 3.62085C5.25833 2.40015 6.52786 1.50496 7.99271 0.935303C9.45755 0.349365 11.0852 0.0563965 12.8755 0.0563965C14.3078 0.0563965 15.6343 0.243571 16.855 0.61792C18.092 0.975993 19.2069 1.53752 20.1997 2.30249C21.1926 3.06746 22.0389 4.05216 22.7388 5.25659C23.4387 6.44474 23.9758 7.8689 24.3501 9.52905C24.7245 11.1729 24.9117 13.061 24.9117 15.1931ZM17.856 22.2732V14.241C17.856 12.9552 17.7827 11.8321 17.6363 10.8718C17.5061 9.91154 17.3026 9.09774 17.0259 8.43042C16.7492 7.74683 16.4074 7.19344 16.0005 6.77026C15.5936 6.34709 15.1298 6.03784 14.6089 5.84253C14.0881 5.64722 13.5103 5.54956 12.8755 5.54956C12.078 5.54956 11.37 5.70418 10.7515 6.01343C10.1493 6.32267 9.63659 6.81909 9.21341 7.50269C8.79023 8.17 8.46471 9.06519 8.23685 10.1882C8.02526 11.295 7.91946 12.6459 7.91946 14.241V22.2732C7.91946 23.559 7.98457 24.6902 8.11478 25.6667C8.26126 26.6433 8.47285 27.4815 8.74954 28.1814C9.04251 28.865 9.38431 29.4265 9.77493 29.866C10.1818 30.2891 10.6457 30.5984 11.1665 30.7937C11.7036 30.989 12.2896 31.0867 12.9243 31.0867C13.7056 31.0867 14.3973 30.932 14.9995 30.6228C15.618 30.2973 16.1389 29.7927 16.562 29.1091C17.0015 28.4093 17.327 27.4978 17.5386 26.3748C17.7502 25.2517 17.856 23.8845 17.856 22.2732ZM36.899 15.2664H40.6587C41.8631 15.2664 42.856 15.0629 43.6372 14.656C44.4185 14.2328 44.9963 13.6469 45.3706 12.8982C45.7613 12.1332 45.9566 11.2462 45.9566 10.2371C45.9566 9.3256 45.7775 8.51994 45.4195 7.82007C45.0777 7.10392 44.5487 6.55054 43.8326 6.15991C43.1164 5.75301 42.2131 5.54956 41.1226 5.54956C40.26 5.54956 39.4624 5.72046 38.73 6.06226C37.9976 6.40405 37.4117 6.8842 36.9722 7.50269C36.5327 8.12118 36.313 8.86987 36.313 9.74878H29.2574C29.2574 7.79565 29.7782 6.09481 30.8199 4.64624C31.8778 3.19767 33.2938 2.06649 35.0679 1.25269C36.842 0.438883 38.7951 0.0319824 40.9273 0.0319824C43.3361 0.0319824 45.4439 0.422607 47.2505 1.20386C49.0572 1.96883 50.465 3.10002 51.4742 4.59741C52.4833 6.09481 52.9878 7.95028 52.9878 10.1638C52.9878 11.2869 52.7274 12.3774 52.2066 13.4353C51.6857 14.477 50.937 15.421 49.9605 16.2673C49.0002 17.0974 47.8283 17.7647 46.4449 18.2693C45.0614 18.7576 43.507 19.0017 41.7818 19.0017H36.899V15.2664ZM36.899 20.613V16.9753H41.7818C43.7186 16.9753 45.4195 17.1951 46.8843 17.6345C48.3492 18.074 49.578 18.7087 50.5708 19.5388C51.5637 20.3526 52.3124 21.321 52.8169 22.4441C53.3215 23.5509 53.5738 24.7797 53.5738 26.1306C53.5738 27.7908 53.2564 29.2719 52.6216 30.574C51.9868 31.8598 51.0917 32.9503 49.9361 33.8455C48.7967 34.7406 47.4621 35.4242 45.9322 35.8962C44.4022 36.352 42.7339 36.5798 40.9273 36.5798C39.4299 36.5798 37.9569 36.3764 36.5083 35.9695C35.076 35.5463 33.774 34.9197 32.6021 34.0896C31.4465 33.2432 30.5187 32.1853 29.8189 30.9158C29.1353 29.63 28.7935 28.1082 28.7935 26.3503H35.8492C35.8492 27.2618 36.077 28.0756 36.5327 28.7917C36.9885 29.5079 37.6151 30.0694 38.4126 30.4763C39.2264 30.8832 40.1298 31.0867 41.1226 31.0867C42.2456 31.0867 43.2059 30.8832 44.0034 30.4763C44.8173 30.0531 45.4357 29.4672 45.8589 28.7185C46.2984 27.9535 46.5181 27.0665 46.5181 26.0574C46.5181 24.7553 46.2821 23.7136 45.8101 22.9324C45.3381 22.1348 44.6626 21.5489 43.7837 21.1746C42.9048 20.8002 41.8631 20.613 40.6587 20.613H36.899Z" fill="#A07B50"/>
</svg>
