<svg width="76" height="52" viewBox="0 0 76 52" fill="none" xmlns="http://www.w3.org/2000/svg">
<path d="M33.9141 21.4397V30.053C33.9141 33.79 33.5153 37.0142 32.7178 39.7258C31.9202 42.4146 30.7695 44.6249 29.2656 46.3567C27.7845 48.0657 26.0186 49.3303 23.9678 50.1506C21.917 50.9709 19.6383 51.3811 17.1318 51.3811C15.1266 51.3811 13.2581 51.1305 11.5264 50.6292C9.7946 50.1051 8.23372 49.2961 6.84375 48.2024C5.47656 47.1086 4.29167 45.7301 3.28906 44.0667C2.30924 42.3805 1.55729 40.3752 1.0332 38.051C0.509115 35.7268 0.24707 33.0608 0.24707 30.053V21.4397C0.24707 17.7027 0.645833 14.5012 1.44336 11.8352C2.26367 9.1464 3.41439 6.94751 4.89551 5.23853C6.39941 3.52954 8.17676 2.27629 10.2275 1.47876C12.2783 0.658447 14.557 0.248291 17.0635 0.248291C19.0687 0.248291 20.9258 0.510335 22.6348 1.03442C24.3665 1.53573 25.9274 2.32186 27.3174 3.39282C28.7074 4.46379 29.8923 5.84237 30.8721 7.52856C31.8519 9.19198 32.6038 11.1858 33.1279 13.51C33.652 15.8114 33.9141 18.4547 33.9141 21.4397ZM24.0361 31.3518V20.1067C24.0361 18.3066 23.9336 16.7343 23.7285 15.3899C23.5462 14.0455 23.2614 12.9062 22.874 11.9719C22.4867 11.0149 22.0081 10.2402 21.4385 9.64771C20.8688 9.05526 20.2194 8.62231 19.4902 8.34888C18.7611 8.07544 17.9521 7.93872 17.0635 7.93872C15.9469 7.93872 14.9557 8.15519 14.0898 8.58813C13.2467 9.02108 12.529 9.71606 11.9365 10.6731C11.3441 11.6073 10.8883 12.8606 10.5693 14.4329C10.2731 15.9823 10.125 17.8736 10.125 20.1067V31.3518C10.125 33.1519 10.2161 34.7356 10.3984 36.1028C10.6035 37.47 10.8997 38.6435 11.2871 39.6233C11.6973 40.5803 12.1758 41.3665 12.7227 41.9817C13.2923 42.5741 13.9417 43.0071 14.6709 43.2805C15.4229 43.554 16.2432 43.6907 17.1318 43.6907C18.2256 43.6907 19.194 43.4742 20.0371 43.0413C20.903 42.5855 21.6322 41.8792 22.2246 40.9221C22.8398 39.9423 23.2956 38.6663 23.5918 37.094C23.888 35.5217 24.0361 33.6077 24.0361 31.3518ZM75.4766 32.1038V39.8284H39.6221L39.1436 33.8469L59.8906 0.931885H67.7178L59.2412 15.1165L48.9189 32.1038H75.4766ZM69.8369 0.931885V50.6975H59.9932V0.931885H69.8369Z" fill="#A07B50"/>
</svg>
