<svg width="55" height="38" viewBox="0 0 55 38" fill="none" xmlns="http://www.w3.org/2000/svg">
<path d="M24.9117 16.0964V22.2488C24.9117 24.9181 24.6268 27.2211 24.0572 29.158C23.4875 31.0785 22.6656 32.6573 21.5913 33.8943C20.5334 35.115 19.272 36.0183 17.8072 36.6042C16.3423 37.1902 14.7147 37.4832 12.9243 37.4832C11.4921 37.4832 10.1574 37.3041 8.92044 36.946C7.68346 36.5717 6.56855 35.9939 5.57571 35.2126C4.59915 34.4314 3.7528 33.4467 3.03665 32.2585C2.33678 31.0541 1.79967 29.6218 1.42532 27.9617C1.05097 26.3015 0.8638 24.3972 0.8638 22.2488V16.0964C0.8638 13.4272 1.14863 11.1404 1.71829 9.23608C2.30423 7.31551 3.12617 5.74487 4.18411 4.52417C5.25833 3.30347 6.52786 2.40828 7.99271 1.83862C9.45755 1.25269 11.0852 0.959717 12.8755 0.959717C14.3078 0.959717 15.6343 1.14689 16.855 1.52124C18.092 1.87931 19.2069 2.44084 20.1997 3.20581C21.1926 3.97078 22.0389 4.95549 22.7388 6.15991C23.4387 7.34806 23.9758 8.77222 24.3501 10.4324C24.7245 12.0763 24.9117 13.9643 24.9117 16.0964ZM17.856 23.1765V15.1443C17.856 13.8585 17.7827 12.7354 17.6363 11.7751C17.5061 10.8149 17.3026 10.0011 17.0259 9.33374C16.7492 8.65015 16.4074 8.09676 16.0005 7.67358C15.5936 7.25041 15.1298 6.94116 14.6089 6.74585C14.0881 6.55054 13.5103 6.45288 12.8755 6.45288C12.078 6.45288 11.37 6.6075 10.7515 6.91675C10.1493 7.22599 9.63659 7.72241 9.21341 8.40601C8.79023 9.07332 8.46471 9.96851 8.23685 11.0916C8.02526 12.1983 7.91946 13.5492 7.91946 15.1443V23.1765C7.91946 24.4623 7.98457 25.5935 8.11478 26.5701C8.26126 27.5466 8.47285 28.3848 8.74954 29.0847C9.04251 29.7683 9.38431 30.3298 9.77493 30.7693C10.1818 31.1925 10.6457 31.5017 11.1665 31.697C11.7036 31.8923 12.2896 31.99 12.9243 31.99C13.7056 31.99 14.3973 31.8354 14.9995 31.5261C15.618 31.2006 16.1389 30.696 16.562 30.0125C17.0015 29.3126 17.327 28.4011 17.5386 27.2781C17.7502 26.155 17.856 24.7878 17.856 23.1765ZM54.5992 23.7136V29.2312H28.9888L28.647 24.9587L43.4663 1.448H49.0572L43.0025 11.5798L35.6294 23.7136H54.5992ZM50.5708 1.448V36.9949H43.5396V1.448H50.5708Z" fill="#A07B50"/>
</svg>
