<svg width="7" height="16" viewBox="0 0 7 16" fill="none" xmlns="http://www.w3.org/2000/svg">
<path d="M1.46205 3.1803C1.46205 3.55256 1.46205 5.2141 1.46205 5.2141H0V7.70103H1.46205V15.0913H4.46541V7.70124H6.48081C6.48081 7.70124 6.66956 6.50877 6.76105 5.20493C6.49874 5.20493 4.47677 5.20493 4.47677 5.20493C4.47677 5.20493 4.47677 3.75811 4.47677 3.50451C4.47677 3.25036 4.80423 2.9085 5.12788 2.9085C5.45092 2.9085 6.13273 2.9085 6.76422 2.9085C6.76422 2.5699 6.76422 1.39996 6.76422 0.319458C5.9212 0.319458 4.96211 0.319458 4.53935 0.319458C1.38781 0.319286 1.46205 2.8087 1.46205 3.1803Z" fill="white"/>
</svg>
