<svg width="21" height="15" viewBox="0 0 21 15" fill="none" xmlns="http://www.w3.org/2000/svg">
<path d="M18.7267 7.14475C19.8538 7.04998 20.6183 6.52778 20.9125 5.81922C20.506 6.07376 19.2439 6.35127 18.5469 6.08698C18.5127 5.92008 18.4746 5.76154 18.4371 5.61841C17.906 3.63089 16.0876 2.02966 14.1823 2.2231C14.3365 2.15966 14.4928 2.10061 14.6487 2.04759C14.8584 1.97103 16.0889 1.76699 15.8951 1.32434C15.7318 0.934993 14.2285 1.61858 13.9454 1.70793C14.3191 1.56471 14.937 1.31835 15.0032 0.880737C14.4308 0.960765 13.8688 1.23661 13.4345 1.6377C13.5913 1.46571 13.7102 1.2561 13.7355 1.03052C12.2086 2.02467 11.3167 4.02893 10.5948 5.97314C10.028 5.41333 9.5257 4.97248 9.07504 4.72769C7.81078 4.03673 6.29916 3.31581 3.92625 2.41806C3.85342 3.21819 4.31452 4.28209 5.64321 4.9896C5.35534 4.95033 4.82891 5.03796 4.40788 5.14072C4.57935 6.05736 5.13932 6.81256 6.65529 7.17775C5.96248 7.22435 5.60444 7.38502 5.27994 7.73134C5.59548 8.36885 6.36546 9.11915 7.75055 8.96514C6.2106 9.64159 7.12265 10.8943 8.3757 10.7075C6.23808 12.9577 2.86789 12.7924 0.932617 10.9102C5.98548 17.9274 16.9692 15.0602 18.6061 8.30133C19.8325 8.31198 20.5534 7.86838 21.0004 7.37932C20.2939 7.50152 19.2697 7.37523 18.7267 7.14475Z" fill="white"/>
</svg>
