<svg width="22" height="13" viewBox="0 0 22 13" fill="none" xmlns="http://www.w3.org/2000/svg">
<path d="M21.3283 11.6357C21.2718 11.5392 20.9221 10.7647 19.2395 9.17268C17.478 7.50562 17.7146 7.77632 19.8363 4.89382C21.1285 3.13832 21.6451 2.06626 21.4834 1.60795C21.3296 1.17109 20.3792 1.28634 20.3792 1.28634L17.219 1.3051C17.219 1.3051 16.985 1.27294 16.8102 1.3788C16.6406 1.48333 16.5315 1.72454 16.5315 1.72454C16.5315 1.72454 16.0306 3.08338 15.3628 4.23852C13.9549 6.67612 13.391 6.80476 13.1609 6.65334C12.6259 6.3009 12.76 5.23554 12.76 4.47973C12.76 2.11718 13.111 1.13223 12.0751 0.877613C11.7307 0.793189 11.4783 0.736906 10.5989 0.727525C9.47098 0.715464 8.5153 0.731545 7.97502 1.0009C7.61483 1.18047 7.33746 1.58115 7.50703 1.60393C7.71605 1.63208 8.18929 1.73392 8.44037 2.08234C8.76507 2.53127 8.75323 3.54168 8.75323 3.54168C8.75323 3.54168 8.9399 6.32234 8.31812 6.66808C7.89088 6.90527 7.30591 6.4215 6.0505 4.20904C5.40769 3.07668 4.9213 1.82371 4.9213 1.82371C4.9213 1.82371 4.82797 1.59053 4.66102 1.46591C4.45858 1.31448 4.17463 1.26624 4.17463 1.26624L1.16955 1.285C1.16955 1.285 0.71866 1.2984 0.553025 1.49807C0.405795 1.6763 0.541194 2.04348 0.541194 2.04348C0.541194 2.04348 2.89425 7.65437 5.55755 10.4833C8.00131 13.0763 10.775 12.9061 10.775 12.9061H12.0317C12.0317 12.9061 12.4116 12.8632 12.6049 12.6502C12.7837 12.4545 12.7771 12.0873 12.7771 12.0873C12.7771 12.0873 12.7521 10.368 13.5356 10.1147C14.3072 9.86549 15.2984 11.7764 16.3487 12.5121C17.1427 13.0683 17.7461 12.9463 17.7461 12.9463L20.5553 12.9061C20.5553 12.9061 22.025 12.8137 21.3283 11.6357Z" fill="white"/>
</svg>
